<?xml version="1.0" encoding="utf-8"?>
<!-- Generator: Adobe Illustrator 19.2.1, SVG Export Plug-In . SVG Version: 6.00 Build 0)  -->
<svg version="1.1" id="Layer_1" xmlns="http://www.w3.org/2000/svg" xmlns:xlink="http://www.w3.org/1999/xlink" x="0px" y="0px"
	 viewBox="0 0 81.6 79.7" style="enable-background:new 0 0 81.6 79.7;" xml:space="preserve">
<style type="text/css">
	.st0{fill:#FCD430;}
	.st1{fill:#5EACF7;}
	.st2{fill:none;stroke:#284A5F;stroke-width:5;stroke-linecap:round;stroke-miterlimit:10;}
</style>
<g>
	<path class="st0" d="M61.1,11.9c0.4,1.1,0.6,2.2,0.9,3.3c0.1,0.6,0.4,0.9,1,1c5.7,0.9,10.4,3.7,13.8,8.3c0.3,0.4,0.6,0.8,0.8,1.2
		c2.5-2.7,4-6.4,4-10.4C81.6,6.8,74.7,0,66.3,0c-3.9,0-7.5,1.5-10.2,3.9C58.3,6.1,60,8.8,61.1,11.9z"/>
</g>
<g id="tgsHdO_1_">
	<g>
		<path class="st1" d="M38.2,60.7c-5.7,0-11.3,0.1-17,0c-8.9-0.2-16.9-5.6-20-14.1c-3.8-10.5,1.5-22.3,12.1-26.4
			c2.1-0.8,2.8-1.9,3.2-3.9c1.2-6,4.7-10.4,10-13.3c12-6.7,26.4-0.9,30.7,11.5c0.4,1.1,0.6,2.2,0.9,3.3c0.1,0.6,0.4,0.9,1,1
			c5.7,0.9,10.4,3.7,13.8,8.3c3.5,4.7,5,10.1,3.9,15.9c-1.6,8.5-6.7,14-14.7,16.7c-2.2,0.7-4.5,1-6.8,1
			C49.6,60.9,43.9,60.8,38.2,60.7C38.2,60.8,38.2,60.8,38.2,60.7z M40.5,54.6c-0.5-0.6-0.7-0.9-1-1.2c-1.8-2.1-3.2-4.4-4.1-7.1
			c-0.5-1.5,0.3-3.3,1.7-3.7c1.7-0.6,3.4,0.1,4,1.8c2.7,7.6,11.1,12.3,19.8,9.5c8-2.7,12.5-12.1,9.2-19.9c-2.6-6-7.3-9.2-13.8-9.6
			c-2-0.1-4-1.4-4-3.9c0-1-0.1-2-0.3-2.9c-1.6-5.9-5.3-9.7-11.3-11.2c-7.6-1.8-15.1,2.1-17.9,9.4c-1,2.6-0.9,2.5,1.8,2.9
			c4.8,0.6,8.9,2.7,12.2,6.1c0.8,0.8,1.1,1.8,0.6,2.9c-0.9,2.2-3.4,2.7-5.2,1C26.8,23.6,19,22.9,12.9,27c-8,5.3-9.2,16.6-2.3,23.3
			c3,2.9,6.6,4.4,10.8,4.4c5.9,0,11.8,0,17.8,0C39.5,54.7,39.8,54.7,40.5,54.6z"/>
	</g>
</g>
<line class="st2" x1="43" y1="65.6" x2="52.9" y2="76.1"/>
<line class="st2" x1="32.1" y1="66.3" x2="42" y2="76.8"/>
<line class="st2" x1="53.9" y1="65.6" x2="63.8" y2="76.1"/>
</svg>
