<?xml version="1.0" encoding="utf-8"?>
<!-- Generator: Adobe Illustrator 19.2.1, SVG Export Plug-In . SVG Version: 6.00 Build 0)  -->
<svg version="1.1" id="Layer_1" xmlns="http://www.w3.org/2000/svg" xmlns:xlink="http://www.w3.org/1999/xlink" x="0px" y="0px"
	 viewBox="0 0 100 100" style="enable-background:new 0 0 100 100;" xml:space="preserve">
<style type="text/css">
	.st0{fill:#FCD430;}
	.st1{fill:#5EACF7;}
	.st2{fill:none;stroke:#284A5F;stroke-width:5;stroke-linecap:round;stroke-miterlimit:10;}
</style>
<g>
	<path class="st0" d="M69.1,25.1c0.4,1.1,0.6,2.2,0.9,3.3c0.1,0.6,0.4,0.9,1,1c5.7,0.9,10.4,3.7,13.8,8.3c0.3,0.4,0.6,0.8,0.8,1.2
		c2.5-2.7,4-6.4,4-10.4c0-8.5-6.9-15.3-15.3-15.3c-3.9,0-7.5,1.5-10.2,3.9C66.3,19.3,68,22,69.1,25.1z"/>
</g>
<g id="tgsHdO_1_">
	<g>
		<path class="st1" d="M46.2,73.9c-5.7,0-11.3,0.1-17,0c-8.9-0.2-16.9-5.6-20-14.1c-3.8-10.5,1.5-22.3,12.1-26.4
			c2.1-0.8,2.8-1.9,3.2-3.9c1.2-6,4.7-10.4,10-13.3c12-6.7,26.4-0.9,30.7,11.5c0.4,1.1,0.6,2.2,0.9,3.3c0.1,0.6,0.4,0.9,1,1
			c5.7,0.9,10.4,3.7,13.8,8.3c3.5,4.7,5,10.1,3.9,15.9c-1.6,8.5-6.7,14-14.7,16.7c-2.2,0.7-4.5,1-6.8,1C57.6,74.1,51.9,74,46.2,73.9
			C46.2,74,46.2,74,46.2,73.9z M48.5,67.8c-0.5-0.6-0.7-0.9-1-1.2c-1.8-2.1-3.2-4.4-4.1-7.1c-0.5-1.5,0.3-3.3,1.7-3.7
			c1.7-0.6,3.4,0.1,4,1.8c2.7,7.6,11.1,12.3,19.8,9.5c8-2.7,12.5-12.1,9.2-19.9c-2.6-6-7.3-9.2-13.8-9.6c-2-0.1-4-1.4-4-3.9
			c0-1-0.1-2-0.3-2.9c-1.6-5.9-5.3-9.7-11.3-11.2c-7.6-1.8-15.1,2.1-17.9,9.4c-1,2.6-0.9,2.5,1.8,2.9c4.8,0.6,8.9,2.7,12.2,6.1
			c0.8,0.8,1.1,1.8,0.6,2.9c-0.9,2.2-3.4,2.7-5.2,1c-5.4-5.1-13.2-5.8-19.3-1.7c-8,5.3-9.2,16.6-2.3,23.3c3,2.9,6.6,4.4,10.8,4.4
			c5.9,0,11.8,0,17.8,0C47.5,67.9,47.8,67.9,48.5,67.8z"/>
	</g>
</g>
<line class="st2" x1="51" y1="78.8" x2="60.9" y2="89.3"/>
<line class="st2" x1="40.1" y1="79.5" x2="50" y2="90"/>
<line class="st2" x1="61.9" y1="78.8" x2="71.8" y2="89.3"/>
</svg>
