<?xml version="1.0" encoding="UTF-8"?>
<svg width="51px" height="50px" viewBox="0 0 51 50" version="1.1" xmlns="http://www.w3.org/2000/svg" xmlns:xlink="http://www.w3.org/1999/xlink">
    <!-- Generator: Sketch 42 (36781) - http://www.bohemiancoding.com/sketch -->
    <title>Group 29</title>
    <desc>Created with Sketch.</desc>
    <defs></defs>
    <g id="Page-1" stroke="none" stroke-width="1" fill="none" fill-rule="evenodd">
        <g id="Group-29" transform="translate(1.125969, 1.204379)">
            <g id="Group-35" stroke-linecap="round" stroke="#5596E6" stroke-width="1.9998">
                <g id="Group-Copy-12" transform="translate(0.592796, 0.034872)" stroke-linejoin="round">
                    <path d="M21.200827,39.8885746 C21.200827,39.8885746 20.0590596,39.8885746 31.3712512,39.8885746 C42.6834427,39.8885746 39.670334,33.1244869 39.670334,32.5462648 C39.670334,31.9680426 38.6442601,29.3513086 35.7941411,29.3513086 C35.7941411,26.5011897 33.4469843,24.1540329 30.5968654,24.1540329 L30.1777302,24.1540329 C28.7526708,18.7891031 23.8907031,14.8492327 18.1066381,14.8492327 C11.2328218,14.8492327 5.61641091,20.4656436 5.61641091,27.33946 C5.61641091,27.8424221 5.61641091,28.2615573 5.70023793,28.7645194 C2.51481085,28.7645194 0.0838270284,31.2793303 0.0838270284,34.2971033 C0.0838270284,37.3987034 2.59863788,39.8296872 5.61641091,39.8296872 L13.5331163,39.8296872" id="Shape"></path>
                    <rect id="Rectangle-path" x="27.3276113" y="0.754443256" width="4.61048656" height="4.61048656"></rect>
                    <rect id="Rectangle-path" x="9.1371461" y="0.754443256" width="4.61048656" height="4.61048656"></rect>
                    <rect id="Rectangle-path" x="27.3276113" y="9.89158936" width="4.61048656" height="4.61048656"></rect>
                    <rect id="Rectangle-path" x="0.0838270284" y="9.89158936" width="4.61048656" height="4.61048656"></rect>
                    <rect id="Rectangle-path" x="36.3809303" y="16.9449084" width="4.61048656" height="4.61048656"></rect>
                    <rect id="Rectangle-path" x="27.3276113" y="35.1353736" width="4.61048656" height="4.61048656"></rect>
                </g>
                <g id="Group" transform="translate(9.821429, 18.519815)">
                    <path d="M8.96548537,0.174652312 C4.01700318,0.174652312 0.0582174374,4.1916555 0.0582174374,9.14013768 C0.0582174374,11.5852701 1.28078362,13.972185 3.02730675,15.7769255 C5.06491706,17.9309707 5.53065656,19.3864067 5.53065656,21.0747124 L5.53065656,21.5404519 L12.3420967,21.5404519 L12.3420967,21.0747124 C12.3420967,19.3864067 12.8078362,17.9309707 14.8454465,15.7769255 C16.5919697,13.972185 17.8145359,11.6434875 17.8145359,9.14013768 C17.8727533,4.1916555 13.8557501,0.174652312 8.96548537,0.174652312" id="XMLID_722_" stroke-linejoin="round"></path>
                    <path d="M5.53065656,23.8691494 L12.3420967,23.8691494" id="XMLID_721_"></path>
                    <path d="M5.53065656,26.2560643 L12.3420967,26.2560643" id="XMLID_720_"></path>
                    <path d="M6.86965762,28.6429792 L11.0030957,28.6429792" id="XMLID_719_"></path>
                </g>
            </g>
            <g id="Group-33" transform="translate(25.000000, 24.482193)">
                <ellipse id="Oval-5" fill="#325C80" cx="12.1162811" cy="12.1162811" rx="12.1162811" ry="12.1162811"></ellipse>
                <g id="Page-1-Copy" transform="translate(3.461795, 3.461795)" fill="#FFFFFF">
                    <path d="M14.9265122,6.73136641 L13.1336492,8.5249286 C12.1176469,9.54093089 10.5037906,9.57589312 9.43184874,8.65848431 L12.2456087,5.84402511 L11.5037103,5.10282592 L8.68995031,7.91658587 C7.7725415,6.84464402 7.80890221,5.23078767 8.82280677,4.21548463 L10.6177675,2.42192243 C11.1505918,1.88909811 11.8498363,1.62268595 12.5490808,1.62268595 C13.2497238,1.62268595 13.9489683,1.88909811 14.4810934,2.42192243 L14.9265122,2.86734119 C15.9914616,3.9322906 15.9914616,5.66641701 14.9265122,6.73136641 M8.52702634,13.1308523 L6.73346414,14.9244144 C5.66851474,15.9893639 3.93368908,15.9893639 2.86873968,14.9244144 L2.42332092,14.4796949 C1.35977001,13.4147455 1.35977001,11.6799199 2.42332092,10.6149705 L4.2182816,8.82140828 C4.75040668,8.2892832 5.4496512,8.02287104 6.14889572,8.02287104 C6.7831105,8.02287104 7.40963359,8.25292248 7.91938285,8.68855182 L5.10422441,11.5023118 L5.84612285,12.2442102 L8.66058204,9.42975101 C9.57869009,10.5023921 9.54163013,12.1169477 8.52702634,13.1308523 M15.6684106,2.12544276 L15.2229919,1.680024 C14.5111609,0.96889232 13.5622861,0.576616145 12.5504793,0.576616145 C11.5365747,0.576616145 10.5876999,0.96889232 9.87586902,1.680024 L8.08160758,3.47428544 C7.36977666,4.18541711 6.97819972,5.13569041 6.97819972,6.14819648 C6.97819972,6.48173612 7.03553778,6.80338859 7.11804863,7.11665014 C6.80478708,7.03413929 6.48383385,6.97680124 6.15029421,6.97680124 C5.1370889,6.97680124 4.18821409,7.36837817 3.47638317,8.08020909 L1.68212173,9.87307204 C0.208114283,11.3477787 0.208114283,13.7468867 1.68212173,15.2215934 L2.12684125,15.6656136 C2.83867217,16.3774446 3.78894547,16.7690215 4.80145153,16.7690215 C5.81325835,16.7690215 6.76353166,16.3774446 7.47536258,15.6656136 L9.26822553,13.8727507 C9.98005645,13.1609198 10.3716334,12.2113457 10.3716334,11.1988396 C10.3716334,10.8653 10.3149946,10.5436475 10.2324837,10.2310852 C10.5457453,10.3128968 10.8673977,10.3702349 11.2009374,10.3702349 C12.2127442,10.3702349 13.1637167,9.97865796 13.8748484,9.26682704 L15.6684106,7.47326484 C16.3795423,6.76143392 16.7718185,5.81185987 16.7718185,4.79865456 C16.7718185,3.78684774 16.3795423,2.83727368 15.6684106,2.12544276" id="Fill-1"></path>
                </g>
            </g>
        </g>
    </g>
</svg>
